<svg xmlns="http://www.w3.org/2000/svg" xmlns:xlink="http://www.w3.org/1999/xlink" viewBox="0 0 187.21 24.57"><defs><style>.cls-1{isolation:isolate;}.cls-2{fill:url(#radial-gradient);}.cls-3{fill:#c7faff;}.cls-4{opacity:0.39;fill:url(#linear-gradient);}.cls-4,.cls-5{mix-blend-mode:overlay;}.cls-6{fill:#fff2f5;}.cls-10,.cls-7,.cls-9{font-size:12.54px;font-family:CooperBlack, Cooper Black;}.cls-7{fill:#fbb03b;}.cls-8{letter-spacing:-0.03em;}.cls-9{fill:#0c0a49;}.cls-10{fill:#fff;}.cls-11{fill:url(#linear-gradient-2);}</style><radialGradient id="radial-gradient" cx="93.61" cy="12.28" r="65.97" gradientUnits="userSpaceOnUse"><stop offset="0" stop-color="#9c246e"/><stop offset="1" stop-color="#4b1954"/></radialGradient><linearGradient id="linear-gradient" x1="93.61" y1="4.62" x2="93.61" y2="23.18" gradientUnits="userSpaceOnUse"><stop offset="0.05" stop-color="#fff"/><stop offset="0.8" stop-color="#fff" stop-opacity="0"/></linearGradient><linearGradient id="linear-gradient-2" x1="94.21" y1="10.83" x2="94.21" y2="17.17" gradientUnits="userSpaceOnUse"><stop offset="0" stop-color="#e4e4e4"/><stop offset="0.04" stop-color="#ededed"/><stop offset="0.11" stop-color="#f8f8f8"/><stop offset="0.18" stop-color="#fcfcfc"/><stop offset="0.44" stop-color="#fff"/><stop offset="0.47" stop-color="#d9cae8"/><stop offset="0.51" stop-color="#a683c9"/><stop offset="0.52" stop-color="#b491d6"/><stop offset="0.55" stop-color="#caa7ed"/><stop offset="0.58" stop-color="#d8b5fa"/><stop offset="0.61" stop-color="#ddbaff"/><stop offset="0.85" stop-color="#e1c2fd"/><stop offset="0.99" stop-color="#e4cafc"/></linearGradient></defs><g class="cls-1"><g id="Layer_2" data-name="Layer 2"><g id="Layer_1-2" data-name="Layer 1"><path class="cls-2" d="M2,23.57a1,1,0,0,1-.89-1.45C4.07,16.26,11.52,2.49,16.73,1A.84.84,0,0,1,17,1H170.21a.84.84,0,0,1,.27,0c5.22,1.45,12.67,15.22,15.62,21.08a1,1,0,0,1,0,1,1,1,0,0,1-.85.48Z"/><path class="cls-3" d="M170.21,2c5,1.39,12.81,16.23,15,20.57H2C4.19,18.23,12,3.39,17,2H170.21m0-2H17a2,2,0,0,0-.54.07C11.07,1.58,4,14.25.22,21.67A2,2,0,0,0,.3,23.62a2,2,0,0,0,1.7.95H185.21a2,2,0,0,0,1.79-2.9c-3.75-7.42-10.85-20.09-16.25-21.6a2,2,0,0,0-.54-.07Z"/><path class="cls-4" d="M182.28,23.18c-2-3.91-9-17.31-13.54-18.56H18.47C14,5.87,6.91,19.27,4.93,23.18Z"/><g class="cls-5"><path class="cls-6" d="M168.67,5.12c3.32,1,8.7,9.58,12.79,17.56H5.75c4.09-8,9.48-16.55,12.79-17.56H168.67m.07-.5H18.47C14,5.87,6.91,19.27,4.93,23.18H182.28c-2-3.91-9-17.31-13.54-18.56Z"/></g><text class="cls-7" transform="translate(45.43 17.87) rotate(-0.16) scale(1.27 1)">USER<tspan class="cls-8" x="36.76" y="0">N</tspan><tspan x="46.83" y="0">AME</tspan></text><text class="cls-9" transform="translate(45.43 18.44) rotate(-0.16) scale(1.27 1)">USER<tspan class="cls-8" x="36.76" y="0">N</tspan><tspan x="46.83" y="0">AME</tspan></text><text class="cls-10" transform="translate(45.43 17.87) rotate(-0.16) scale(1.27 1)">USER<tspan class="cls-8" x="36.76" y="0">N</tspan><tspan x="46.83" y="0">AME</tspan></text><path class="cls-11" d="M51.84,17.73A7.14,7.14,0,0,1,48,16.85a2.29,2.29,0,0,1-.9-.94,4.18,4.18,0,0,1-.26-1.63c0-.3,0-.78,0-1.46,0-.49,0-.81,0-1A1.93,1.93,0,0,0,46.8,11a1.23,1.23,0,0,0-.55-.49c-.22-.11-.36-.24-.36-.33s0-.09.14-.19a1.24,1.24,0,0,1,.57-.2,12.37,12.37,0,0,1,2-.14h0a12.48,12.48,0,0,1,2.07.14c.6.11.6.32.6.39s0,.1-.11.17l-.41.16a.79.79,0,0,0-.5.48,2.48,2.48,0,0,0-.11.85c0,.35,0,1.12,0,2.29A2,2,0,0,0,50.9,16a2.89,2.89,0,0,0,1.76.51,4,4,0,0,0,1.23-.2,2.08,2.08,0,0,0,.89-.59,1.53,1.53,0,0,0,.34-.64,3.44,3.44,0,0,0,.09-.88V12.85A10.3,10.3,0,0,0,55.07,11a.94.94,0,0,0-.68-.61,2,2,0,0,1-.47-.21c0-.17.08-.26.31-.33a6.2,6.2,0,0,1,1.7-.16,6.28,6.28,0,0,1,1.66.15c.22.06.34.15.34.25s-.08.11-.41.27-.57.35-.63.58a8.82,8.82,0,0,0-.08,1.64V14a4.81,4.81,0,0,1-.22,1.8,3.33,3.33,0,0,1-2.23,1.57,9.06,9.06,0,0,1-2.49.32Z"/><path class="cls-11" d="M63.4,17.7a12,12,0,0,1-2-.18,5.6,5.6,0,0,1-1.51-.4,1.57,1.57,0,0,1-.54-.72,2.7,2.7,0,0,1-.28-1.16.34.34,0,0,1,.07-.25.38.38,0,0,1,.29-.12.61.61,0,0,1,.38.17,10.71,10.71,0,0,1,.74.83,2.29,2.29,0,0,0,1,.65,4.09,4.09,0,0,0,1.38.24,2.47,2.47,0,0,0,1.06-.2.73.73,0,0,0,.11-1.35,3.38,3.38,0,0,0-1-.37,14.24,14.24,0,0,1-1.66-.48,5.34,5.34,0,0,1-1-.55,2.14,2.14,0,0,1-1.11-1.71,1.71,1.71,0,0,1,.27-.9,2.55,2.55,0,0,1,.81-.79,5.34,5.34,0,0,1,3-.83,9.25,9.25,0,0,1,2,.3,1.24,1.24,0,0,0,.3,0,2.13,2.13,0,0,0,.56-.12.48.48,0,0,1,.18,0,1.36,1.36,0,0,1,.89.55,1.7,1.7,0,0,1,.51,1,.48.48,0,0,1-.17.36.62.62,0,0,1-.44.17,1,1,0,0,1-.38-.07,8.08,8.08,0,0,1-.81-.55,3.4,3.4,0,0,0-2-.74,1.57,1.57,0,0,0-.85.21.8.8,0,0,0-.39.68c0,.76,1.06,1,1.41,1.08,1.06.24,1.74.42,2,.52,1.21.46,1.8,1.11,1.8,2a2.17,2.17,0,0,1-1.21,1.89,6.57,6.57,0,0,1-3.45.81Z"/><path class="cls-11" d="M78.14,17.62l-.38,0a10.89,10.89,0,0,0-1.35-.09l-6.59,0a.78.78,0,0,1-.46-.1.13.13,0,0,1-.08-.14s0-.09.33-.19a1.23,1.23,0,0,0,.45-.27,1,1,0,0,0,.24-.47,9.9,9.9,0,0,0,.26-2.57,7.08,7.08,0,0,0-.42-3.12.7.7,0,0,0-.29-.28,1.84,1.84,0,0,0-.45-.14c-.22-.05-.22-.13-.22-.19a.19.19,0,0,1,.06-.15.46.46,0,0,1,.24-.12,7.78,7.78,0,0,1,1.12,0h4c.81,0,1.41,0,1.78-.05A8.31,8.31,0,0,0,77.5,9.5a.62.62,0,0,1,.69.22,1.59,1.59,0,0,1,.44,1.15.66.66,0,0,1-.13.44.53.53,0,0,1-.38.13.52.52,0,0,1-.26,0,1.59,1.59,0,0,1-.3-.31,2,2,0,0,0-1-.63,7.12,7.12,0,0,0-1.74-.15c-.76,0-1.17.12-1.36.37a1,1,0,0,0-.18.51c0,.16,0,.55,0,1.18a.8.8,0,0,0,.31.71,2,2,0,0,0,.93.12,1.07,1.07,0,0,0,.66-.16.79.79,0,0,0,.3-.58,3.22,3.22,0,0,1,.09-.41.27.27,0,0,1,.11-.1.36.36,0,0,1,.22-.07.43.43,0,0,1,.34.15,1.27,1.27,0,0,1,.21.5,3.57,3.57,0,0,1,.1.87,2.7,2.7,0,0,1-.33,1.44.51.51,0,0,1-.55.18h0a1.05,1.05,0,0,1-.08-.29c-.06-.35-.31-.93-1.3-.93a.85.85,0,0,0-.72.29,1.42,1.42,0,0,0-.18.82,6.28,6.28,0,0,0,.06.77,3.14,3.14,0,0,0,.12.68.72.72,0,0,0,.59.43,5.91,5.91,0,0,0,1.11.07,5.33,5.33,0,0,0,1.89-.26,2.25,2.25,0,0,0,1.1-1,1.78,1.78,0,0,1,.3-.39.51.51,0,0,1,.3-.07.44.44,0,0,1,.33.13.52.52,0,0,1,.13.37,2.2,2.2,0,0,1-.21.8,3.8,3.8,0,0,1-.55.92,1.9,1.9,0,0,1-.22.22l-.14,0Z"/><path class="cls-11" d="M89.44,17.7a2.81,2.81,0,0,1-2-.54,2.28,2.28,0,0,1-.44-.63,10,10,0,0,1-.47-1.3,2,2,0,0,0-.55-1,1.47,1.47,0,0,0-1-.32.69.69,0,0,0-.64.28,1.8,1.8,0,0,0-.11.8,4.47,4.47,0,0,0,.14,1.29.68.68,0,0,0,.2.33,1.59,1.59,0,0,0,.37.21c.2.08.29.17.29.27s-.23.24-.43.3a10,10,0,0,1-2.12.16c-2.46,0-2.59-.47-2.59-.56s.07-.1.33-.23a1.35,1.35,0,0,0,.58-.55,2.88,2.88,0,0,0,.19-.94c0-.3,0-1.33,0-3.14a3.92,3.92,0,0,0-.13-1.25,1,1,0,0,0-.63-.62,1.18,1.18,0,0,1-.37-.18.19.19,0,0,1,.08-.23,1.16,1.16,0,0,1,.5-.2,4.85,4.85,0,0,1,.86-.06l1.27,0h.55c.55,0,1.17,0,2-.08.48,0,.82,0,1,0a5.31,5.31,0,0,1,2.61.58,1.5,1.5,0,0,1,.84,1.33,1.42,1.42,0,0,1-.29.86,1.73,1.73,0,0,1-.81.6c-.35.14-.43.35-.43.5s.2.45.59.56a2,2,0,0,1,1,.61,2.74,2.74,0,0,1,.49,1.31,1.2,1.2,0,0,0,.3.69,1.73,1.73,0,0,0,.74.29l.09.06a.24.24,0,0,1-.07.27.87.87,0,0,1-.37.23,5,5,0,0,1-1.69.23Zm-4.28-7.37a.86.86,0,0,0-.61.19.83.83,0,0,0-.24.59l-.08,1.42a.72.72,0,0,0,.18.58.75.75,0,0,0,.52.15,1.71,1.71,0,0,0,1.18-.36,1.4,1.4,0,0,0,.41-1.1c0-1-.48-1.47-1.35-1.47Z"/><path class="cls-11" d="M94.73,17.57a4.48,4.48,0,0,1-1.5-.2c-.26-.09-.39-.21-.39-.34s0-.1,0-.11a1.77,1.77,0,0,1,.41-.23,1,1,0,0,0,.6-.82A15.26,15.26,0,0,0,94,13.55a8.23,8.23,0,0,0-.25-2.39,1.14,1.14,0,0,0-.29-.5,1.51,1.51,0,0,0-.54-.31,1.65,1.65,0,0,1-.39-.2.15.15,0,0,1,0-.11c0-.21.37-.38,1-.46.28,0,.78-.05,1.49-.05a3.33,3.33,0,0,1,.83.07,1.89,1.89,0,0,1,.58.3l3.88,2.66a1.84,1.84,0,0,0,.94.42c.21,0,.69-.1.69-1a3.41,3.41,0,0,0-.14-1.16,1.08,1.08,0,0,0-.65-.58c-.21-.08-.3-.14-.32-.18s0-.05,0-.14.22-.31.65-.38a8.39,8.39,0,0,1,1.23-.06h0a7.39,7.39,0,0,1,1.55.1c.5.11.5.3.5.37s-.13.24-.39.33a1.44,1.44,0,0,0-.39.18.7.7,0,0,0-.24.29,3.92,3.92,0,0,0-.24,1.65v2c0,.31,0,.73,0,1.26a4.66,4.66,0,0,1-.15,1.46c-.12.35-.31.4-.49.4a.79.79,0,0,1-.29-.05,3.22,3.22,0,0,1-.53-.34l-4.62-3.24a1.74,1.74,0,0,0-1-.39c-.5,0-.76.44-.76,1.32a4,4,0,0,0,.15,1.27,1.11,1.11,0,0,0,.65.62c.22.08.34.18.34.26s0,.22-.39.37a5.05,5.05,0,0,1-1.64.2Z"/><path class="cls-11" d="M107.11,17.53a8.93,8.93,0,0,1-1.73-.12c-.32-.08-.32-.21-.32-.28s.11-.15.34-.21a2.08,2.08,0,0,0,.89-.47,6.38,6.38,0,0,0,.79-1.15l1.08-1.9a12,12,0,0,0,.83-1.6,3.19,3.19,0,0,0,.23-1.11,2.14,2.14,0,0,1,.06-.64.64.64,0,0,1,.24-.27,1.8,1.8,0,0,1,1.19-.37,2.31,2.31,0,0,1,1.33.43,13.28,13.28,0,0,1,2.82,3.75l1.47,2.47a2.34,2.34,0,0,0,.42.54,1.2,1.2,0,0,0,.57.19c.31,0,.31.13.31.17s0,.23-.48.36a8.66,8.66,0,0,1-2.15.2h-.13a20,20,0,0,1-2.43-.11,1.12,1.12,0,0,1-.49-.17.2.2,0,0,1-.11-.18c0-.08.1-.13.35-.19.5-.14.58-.44.57-.61s-.11-.68-.88-.77c-.43,0-1-.07-1.79-.07H110a3.83,3.83,0,0,0-1.36.13.8.8,0,0,0-.34.34.86.86,0,0,0-.13.45.45.45,0,0,0,.21.42,2.05,2.05,0,0,0,.5.16c.26.06.26.14.26.16,0,.21-.5.45-1.92.45Zm3.25-5.33c-.22,0-.51.1-.73.58l-.22.42c-.32.63-.35.78-.35.88s.06.44.64.44h1.52c.59,0,.71-.24.71-.43s-.05-.37-.64-1.16a3.66,3.66,0,0,0-.45-.53.7.7,0,0,0-.48-.19Z"/><path class="cls-11" d="M120,17.49c-1.15,0-1.56-.2-1.56-.37s.07-.08.41-.21a.88.88,0,0,0,.49-.38,2.17,2.17,0,0,0,.19-.72c0-.34.09-.89.13-1.63s.05-1.4.05-1.93a3.24,3.24,0,0,0-.23-1.49.76.76,0,0,0-.25-.28,1.76,1.76,0,0,0-.39-.19c-.23-.09-.38-.19-.38-.27s0-.09.11-.18a.91.91,0,0,1,.42-.19,6.48,6.48,0,0,1,.88-.13,8.92,8.92,0,0,1,.94-.06h0a5,5,0,0,1,1.32.11.69.69,0,0,1,.21.1,2.33,2.33,0,0,1,.29.38l1.62,2.34a2.52,2.52,0,0,0,.42.53.69.69,0,0,0,.46.15.72.72,0,0,0,.45-.15,1.79,1.79,0,0,0,.35-.42L127,10.82l.26-.43a2,2,0,0,1,.65-.72,3.56,3.56,0,0,1,1.58-.23c1.21,0,1.91.18,1.92.5a.13.13,0,0,1,0,.1s-.06.07-.27.2a1.19,1.19,0,0,0-.58.8,10.67,10.67,0,0,0-.18,2.12,18.66,18.66,0,0,0,.2,2.78.94.94,0,0,0,.22.54,1.85,1.85,0,0,0,.58.37c.12.07.12.12.12.14,0,.17-.27.27-.5.33a4.4,4.4,0,0,1-.74.12c-.27,0-.68,0-1.24,0h0a9.07,9.07,0,0,1-1.88-.14c-.12,0-.5-.12-.5-.28s.12-.14.45-.35a1,1,0,0,0,.4-.68,8,8,0,0,0,.07-1.31,1.94,1.94,0,0,0-.08-.74.52.52,0,0,0-.51-.34.86.86,0,0,0-.64.34,9.07,9.07,0,0,0-.63,1l-.93,1.65a3.48,3.48,0,0,1-.33.5.2.2,0,0,1-.13.06.16.16,0,0,1-.11-.05,2.8,2.8,0,0,1-.35-.48c-.2-.3-.36-.57-.5-.8l-1-1.82a.81.81,0,0,0-.69-.52c-.25,0-.52.15-.55.59S121,15,121,15.45a3.78,3.78,0,0,0,.1,1,.82.82,0,0,0,.25.34,5.9,5.9,0,0,0,.54.24c.08,0,.08.06.08.1s-.25.21-.35.24a5.68,5.68,0,0,1-1.59.16Z"/><path class="cls-11" d="M141.41,17.44l-.39,0a11.22,11.22,0,0,0-1.36-.09l-6.58,0a.74.74,0,0,1-.46-.1.13.13,0,0,1-.09-.14c0-.05.06-.1.33-.19a1.23,1.23,0,0,0,.45-.27,1.1,1.1,0,0,0,.25-.47,10.36,10.36,0,0,0,.26-2.57,7,7,0,0,0-.43-3.12.63.63,0,0,0-.28-.28,1.69,1.69,0,0,0-.46-.14c-.22-.05-.22-.13-.22-.19a.2.2,0,0,1,.07-.15.42.42,0,0,1,.24-.12,7.7,7.7,0,0,1,1.11,0h4c.82,0,1.41,0,1.79,0a8.17,8.17,0,0,0,1.12-.17.74.74,0,0,1,.19,0,.68.68,0,0,1,.51.25,1.63,1.63,0,0,1,.44,1.15.6.6,0,0,1-.14.43.44.44,0,0,1-.37.14.52.52,0,0,1-.26,0,1.46,1.46,0,0,1-.31-.31,1.92,1.92,0,0,0-1-.63,7.1,7.1,0,0,0-1.72-.15c-.79,0-1.19.12-1.39.37a.94.94,0,0,0-.17.51c0,.16,0,.55,0,1.18a.79.79,0,0,0,.3.71,2,2,0,0,0,.92.12,1.12,1.12,0,0,0,.68-.16.84.84,0,0,0,.3-.58,1.39,1.39,0,0,1,.09-.41.24.24,0,0,1,.1-.1.37.37,0,0,1,.23-.07.46.46,0,0,1,.34.15,1.17,1.17,0,0,1,.2.5,3.58,3.58,0,0,1,.11.87,2.79,2.79,0,0,1-.33,1.44.42.42,0,0,1-.4.2.55.55,0,0,1-.16,0,1.05,1.05,0,0,1-.08-.29c-.06-.35-.3-.93-1.3-.93a.83.83,0,0,0-.71.29,1.35,1.35,0,0,0-.18.82c0,.2,0,.46,0,.77a3,3,0,0,0,.13.68.72.72,0,0,0,.59.43,5.49,5.49,0,0,0,1.07.07,5.37,5.37,0,0,0,1.92-.26,2.25,2.25,0,0,0,1.1-1,1.26,1.26,0,0,1,.31-.39.5.5,0,0,1,.29-.07.43.43,0,0,1,.33.13.51.51,0,0,1,.14.37,2.06,2.06,0,0,1-.22.8,4,4,0,0,1-.54.92,1,1,0,0,1-.22.21A.34.34,0,0,1,141.41,17.44Z"/></g></g></g></svg>